<svg xmlns="http://www.w3.org/2000/svg" viewBox="0 0 512 512" style="enable-background:new 0 0 512 512" xml:space="preserve"><path style="fill:#f5e0cd" d="M92.973 262.823h272.98v71.565H92.973z"/><path style="fill:#fff" d="M92.973 262.823h21.316v71.565H92.973z"/><path style="fill:#f0d0b4" d="M333.107 262.823h32.852v71.565h-32.852z"/><path style="fill:#fff" d="M72.565 185.112h317.721v77.711H72.565z"/><path style="fill:#e6e6e6" d="M333.055 185.112h57.228v77.711h-57.228z"/><path style="fill:#bc052f" d="M373.262 69.607a37.997 37.997 0 0 1-7.643-17.241H194.596l-99.562 132.75h272.774l-45.99-61.321 51.444-54.188z"/><path style="fill:#d80027" d="M268.242 52.365h-73.649L95.036 185.119h272.772z"/><path style="fill:#fff" d="M194.593 52.365 95.036 185.118h21.043l99.557-132.753z"/><path style="fill:#bc052f" d="M268.242 52.365h-33.126l99.565 132.753h33.127z"/><path style="fill:#fff" d="M229.403 504.187c-87.737 0-158.861-71.124-158.861-158.861v-10.938h317.721v10.938c.001 87.737-71.123 158.861-158.86 158.861z"/><path style="fill:#e6e6e6" d="M353.887 334.389v10.938c0 81.928-62.021 149.361-141.672 157.932 5.647.607 11.38.928 17.188.928 87.737 0 158.861-71.125 158.861-158.861v-10.938h-34.377z"/><circle style="fill:#fff" cx="403.266" cy="46.002" r="38.188"/><path style="fill:#e6e6e6" d="M403.268 7.813c-3.754 0-7.377.551-10.805 1.56 15.827 4.662 27.383 19.291 27.383 36.629s-11.557 31.966-27.383 36.628a38.188 38.188 0 0 0 10.805 1.56c21.09 0 38.188-17.098 38.188-38.188.001-21.092-17.097-38.189-38.188-38.189z"/><path d="M373.772 285.428h-15.626v41.148H253.883v15.626h126.568v3.125c0 83.288-67.76 151.048-151.048 151.048-32.989 0-64.327-10.441-90.626-30.195l-9.384 12.494C158.419 500.477 193.003 512 229.403 512c91.905 0 166.673-74.769 166.673-166.673v-18.751h-22.304v-41.148zm-201.369 8.836c6.605 0 11.98 5.374 11.98 11.98h15.626c0-15.221-12.384-27.605-27.605-27.605s-27.605 12.384-27.605 27.605h15.626c-.002-6.605 5.372-11.98 11.978-11.98z"/><path d="M286.536 294.264c6.605 0 11.98 5.374 11.98 11.98h15.626c0-15.221-12.384-27.605-27.605-27.605s-27.605 12.384-27.605 27.605h15.626c-.002-6.605 5.372-11.98 11.978-11.98zm-67.027 32.312h22.918v15.626h-22.918zM78.355 342.201h128.651v-15.626H100.791v-41.148H85.165v41.148H62.73v18.751c0 44.713 17.467 86.698 49.182 118.219l11.015-11.083c-28.742-28.566-44.572-66.615-44.572-107.137v-3.124zm105.076 81.05c12.692 12.692 29.364 19.037 46.036 19.037 16.674 0 33.346-6.346 46.037-19.037l-11.047-11.049c-19.292 19.291-50.683 19.293-69.979 0l-11.047 11.049zm148.597-298.864 32.876-34.63-11.333-10.759-31.053 32.71-38.647-51.528h60.641V44.554H190.69L91.128 177.303h-26.38v93.333h333.347v-93.333h-26.379l-39.688-52.916zM198.503 60.18h65.836l87.843 117.125H110.66L198.503 60.18zm183.966 194.83h-26.431v-25.314h-15.626v25.314h-23.959v-25.314h-15.626v25.314h-23.959v-25.314h-15.626v25.314h-23.959v-25.314h-15.626v25.314h-23.959v-25.314h-15.626v25.314h-23.959v-25.314h-15.626v25.314h-23.959v-25.314h-15.626v25.314H80.373v-62.082h302.096v62.082zM403.268 0c-25.366 0-46.001 20.636-46.001 46.001s20.636 46.001 46.001 46.001 46.002-20.636 46.002-46.001S428.633 0 403.268 0zm0 76.376c-16.749 0-30.375-13.627-30.375-30.375s13.626-30.375 30.375-30.375c16.75 0 30.376 13.627 30.376 30.375s-13.626 30.375-30.376 30.375z"/><g/><g/><g/><g/><g/><g/><g/><g/><g/><g/><g/><g/><g/><g/><g/></svg>